<svg height="511pt" viewBox="-76 0 511 511.99866" width="511pt" xmlns="http://www.w3.org/2000/svg"><path d="m179.699219 512c53.878906 0 179.199219-14.140625 179.199219-145.066406 0-100.125-63.613282-154.046875-119.746094-201.609375-41.054688-34.765625-76.519532-64.855469-76.519532-105.59375 0-19.421875 14.984376-33.277344 23.894532-39.789063 4.046875-2.976562 5.578125-8.308594 3.722656-12.976562-1.855469-4.671875-6.632812-7.496094-11.617188-6.8789065-69.128906 8.7031245-101.332031 96.7500005-101.332031 153.5117185 0 30.421875 13.652344 54.675782 25.648438 76.074219 9.132812 16.25 17.015625 30.285156 17.015625 43.394531 0 30.589844-14.609375 34.132813-25.597656 34.132813-9.527344 1.179687-19.042969-2.269531-25.601563-9.277344-7.917969-10.894531-2.96875-29.96875-.46875-37.65625 1.390625-4.261719-.300781-8.921875-4.097656-11.300781s-8.726563-1.867188-11.953125 1.238281c-8.652344 8.355469-51.746094 53.136719-51.746094 116.730469 0 130.925781 125.320312 145.066406 179.199219 145.066406zm-132.265625-229.890625c-.277344 9.195313 2.363281 18.246094 7.542968 25.847656 7.816407 10.820313 21.09375 16.308594 39.390626 16.308594 15.929687 0 42.664062-6.648437 42.664062-51.199219 0-17.578125-9.324219-34.132812-19.199219-51.753906-11.519531-20.53125-23.464843-41.753906-23.464843-67.714844 0-45.097656 21.988281-107.835937 63.65625-129.441406-7.9375 10.171875-12.316407 22.671875-12.457032 35.574219 0 48.640625 40.105469 82.636719 82.550782 118.613281 53.300781 45.167969 113.714843 96.367188 113.714843 188.589844 0 47.785156-21.058593 128-162.132812 128s-162.132813-80.214844-162.132813-128c.863282-30.699219 11.308594-60.355469 29.867188-84.824219zm0 0"/><path d="m258.886719 127.460938c2.011719.355468 4.050781.53125 6.09375.527343 9.0625.015625 17.753906-3.574219 24.167969-9.972656 6.410156-6.402344 10.015624-15.089844 10.015624-24.148437.402344-27.890626-14.511718-53.753907-38.851562-67.371094-3.199219-1.457032-6.964844-.777344-9.453125 1.707031-2.578125 2.550781-3.382813 6.398437-2.039063 9.769531 3.816407 11.027344.890626 23.269532-7.5 31.375-9.195312 8.890625-12.648437 22.175782-8.949218 34.417969 3.703125 12.242187 13.9375 21.386719 26.515625 23.695313zm-5.722657-45.832032c7.722657-7.460937 12.664063-17.339844 14-28 9.839844 11.070313 15.171876 25.429688 14.933594 40.238282.007813 5.085937-2.257812 9.910156-6.171875 13.15625-3.917969 3.246093-9.078125 4.574218-14.074219 3.628906-6.945312-1.359375-12.359374-6.820313-13.65625-13.773438-1.003906-5.59375.859376-11.320312 4.96875-15.25zm0 0"/><path d="m68.765625 443.730469h25.601563c13.582031.046875 25.890624-7.992188 31.308593-20.445313 5.417969-12.457031 2.902344-26.941406-6.390625-36.847656 8.28125-6.871094 11.355469-18.203125 7.683594-28.320312-3.675781-10.113282-13.308594-16.832032-24.070312-16.785157h-34.132813c-4.710937 0-8.53125 3.820313-8.53125 8.535157v85.332031c0 4.710937 3.820313 8.53125 8.53125 8.53125zm25.601563-17.066407h-17.066407v-34.132812h17.066407c9.425781 0 17.066406 7.640625 17.066406 17.066406 0 9.425782-7.640625 17.066406-17.066406 17.066406zm-17.066407-68.265624h25.597657c4.714843 0 8.535156 3.820312 8.535156 8.535156 0 4.710937-3.820313 8.53125-8.535156 8.53125h-25.597657zm0 0"/><path d="m154.097656 443.730469h25.601563c13.582031.046875 25.890625-7.992188 31.308593-20.445313 5.417969-12.457031 2.90625-26.941406-6.390624-36.847656 8.28125-6.871094 11.359374-18.203125 7.683593-28.320312-3.671875-10.113282-13.304687-16.832032-24.066406-16.785157h-34.136719c-4.710937 0-8.53125 3.820313-8.53125 8.535157v85.332031c0 4.710937 3.820313 8.53125 8.53125 8.53125zm25.601563-17.066407h-17.066407v-34.132812h17.066407c9.425781 0 17.066406 7.640625 17.066406 17.066406 0 9.425782-7.640625 17.066406-17.066406 17.066406zm-17.066407-68.265624h25.601563c4.710937 0 8.53125 3.820312 8.53125 8.535156 0 4.710937-3.820313 8.53125-8.53125 8.53125h-25.601563zm0 0"/><path d="m265.03125 443.730469c8.171875-.03125 16.050781-3.019531 22.1875-8.414063l5.914062 5.914063c3.347657 3.234375 8.671876 3.1875 11.960938-.101563 3.292969-3.292968 3.339844-8.613281.105469-11.964844l-8.140625-8.140624c1.355468-3.65625 2.066406-7.523438 2.105468-11.425782v-34.132812c0-18.851563-15.28125-34.132813-34.132812-34.132813s-34.132812 15.28125-34.132812 34.132813v34.132812c0 18.851563 15.28125 34.132813 34.132812 34.132813zm-17.066406-68.265625c0-9.425782 7.640625-17.066406 17.066406-17.066406s17.066406 7.640624 17.066406 17.066406v30.601562l-2.5-2.5c-3.347656-3.234375-8.667968-3.1875-11.960937.101563-3.292969 3.292969-3.335938 8.617187-.105469 11.964843l7.628906 7.628907c-5.15625 3.875-12.066406 4.496093-17.832031 1.597656-5.765625-2.894531-9.390625-8.808594-9.363281-15.261719zm0 0"/></svg>