<?xml version="1.0" encoding="utf-8"?>
<!-- Generator: Adobe Illustrator 23.0.5, SVG Export Plug-In . SVG Version: 6.00 Build 0)  -->
<svg version="1.1" id="Layer_1" xmlns="http://www.w3.org/2000/svg" xmlns:xlink="http://www.w3.org/1999/xlink" x="0px" y="0px"
	 viewBox="0 0 655.7 459.6" style="enable-background:new 0 0 655.7 459.6;" xml:space="preserve">
<style type="text/css">
	.st0{fill:#FFFFFF;}
</style>
<path class="st0" d="M588.7,195.8H66.9c-32.5,0-58.8,26.3-58.8,58.8c0,35.1,26.9,51.3,40.1,55.7v19.2c0,65.6,53.4,119,119,119h321.2
	c65.6,0,119-53.4,119-119v-19.2c13-4.3,40-20.6,40-55.7v0C647.5,222.2,621.3,195.8,588.7,195.8z M570,329.5
	c0,45-36.6,81.6-81.6,81.6H167.2c-45,0-81.6-36.6-81.6-81.6v-16.2H570V329.5z M610.1,254.6c0,11.8-9.5,21.3-21.3,21.3H66.9
	c-11.8,0-21.3-9.5-21.3-21.3c0-11.8,9.5-21.3,21.3-21.3h521.8C600.6,233.3,610.1,242.8,610.1,254.6L610.1,254.6z"/>
<g>
	<path class="st0" d="M128.2,350.5c0-5.3,1.1-19.5,20.2-19.5c17.1,0,19.8,11.5,20.1,17.7c0.1,1.1-0.6,2-1.8,2.3l-8.9,2
		c-1.7,0.3-3-0.8-3.2-2.5c-0.4-3.5-1.8-5.6-6.2-5.6c-5.9,0-6.3,3.8-6.3,10v11.6c0,6.2,0.4,10,6.3,10c4.4,0,5.6-2.1,6.1-5.8
		c0.2-1.7,1.5-2.7,3.1-2.3l9.1,2c1.1,0.2,1.8,1.1,1.8,2.3c-0.3,6.1-3,17.6-20.1,17.6c-19,0-20.2-14.2-20.2-19.5V350.5z"/>
	<path class="st0" d="M213,385.9c0,1.8-0.8,2.7-2.4,2.7h-9c-1.5,0-2.4-0.8-2.4-2.4v-7c0-1.6-0.8-2.4-2.4-2.4h-6.9
		c-1.5,0-2.4,0.8-2.4,2.4v7c0,1.6-0.8,2.4-2.4,2.4h-9c-1.5,0-2.4-1-2.4-2.7v-34.1c0-10.1,1.6-20.9,19.7-20.9
		c18.1,0,19.7,10.8,19.7,20.9V385.9z M199.1,351.8c0-3.9-0.6-5.8-5.9-5.8s-5.9,1.9-5.9,5.8v8.8c0,1.5,0.9,2.4,2.4,2.4h6.9
		c1.6-0.1,2.4-0.9,2.4-2.5V351.8z"/>
	<path class="st0" d="M248.6,352.3c-1.6,0.3-2.4-0.4-2.7-2c-0.6-3.3-3.2-5.4-7-5.4c-3.1,0-5.1,1.8-4.7,3.7
		c1.1,6.3,26.5,6.1,26.5,24.6c0,2.4-2.7,16.6-21.8,16.6c-16.9,0-20.5-11.1-20.9-17.4c-0.1-1.4,0.6-2.3,2.1-2.7l9.1-2
		c1.6-0.3,2.5,0.4,2.7,2.1c0.3,3.9,3.3,6.1,7.1,6.1c3.9,0,6.8-2.3,6.3-4.5c-1.5-6.8-25.7-5.3-25.7-23.8c-0.1-2.4,1.4-16.6,19.4-16.6
		c16.6,0,20.4,10.8,20.9,16.6c0.1,1.4-0.6,2.3-2.1,2.7L248.6,352.3z"/>
	<path class="st0" d="M305.5,385.9c0,1.8-0.8,2.7-2.4,2.7h-9c-1.5,0-2.4-0.8-2.4-2.4v-7c0-1.6-0.8-2.4-2.4-2.4h-6.9
		c-1.5,0-2.4,0.8-2.4,2.4v7c0,1.6-0.8,2.4-2.4,2.4h-9c-1.5,0-2.4-1-2.4-2.7v-34.1c0-10.1,1.6-20.9,19.7-20.9
		c18.1,0,19.7,10.8,19.7,20.9V385.9z M291.7,351.8c0-3.9-0.6-5.8-5.9-5.8s-5.9,1.9-5.9,5.8v8.8c0,1.5,0.9,2.4,2.4,2.4h6.9
		c1.6-0.1,2.4-0.9,2.4-2.5V351.8z"/>
	<path class="st0" d="M332.5,332.4c15.1,0,20.9,6.1,20.9,19.3c0,2.7-0.8,8-4.1,11.7c3.3,1.5,5.7,5.5,5.7,10.5
		c0,10-4.4,14.8-19.5,14.8h-19.9c-1.5,0-2.4-0.9-2.4-2.4v-51.4c0-1.6,0.8-2.4,2.4-2.5H332.5z M334.4,377.2c3.9,0,5.8-0.4,5.8-4.2
		s-1.8-4.3-5.6-4.3h-5.2c-1.5,0-2.4,0.8-2.4,2.4v3.7c0,1.6,0.9,2.4,2.4,2.4H334.4z M333.7,357.1c3.9,0,5.8-0.5,5.8-5.5
		c0-5-1.9-5.5-5.8-5.5h-4.3c-1.5,0-2.4,0.8-2.4,2.4v6.1c0,1.6,0.9,2.4,2.4,2.4H333.7z"/>
	<path class="st0" d="M396.4,332.4c1.6,0,2.4,0.8,2.4,2.4v9c0,1.5-0.8,2.4-2.4,2.4H377c-1.5,0-2.4,0.8-2.4,2.4v2.6
		c0,1.5,0.9,2.4,2.4,2.4h12.5c1.6,0,2.4,0.8,2.4,2.4v9c0,1.5-0.8,2.4-2.4,2.4H377c-1.5,0-2.4,0.8-2.4,2.4v2.6c0,1.5,0.9,2.4,2.4,2.4
		h19.4c1.6,0,2.4,0.8,2.4,2.4v9c0,1.6-0.8,2.4-2.4,2.4h-33.8c-1.5,0-2.4-0.9-2.4-2.4v-51.4c0-1.6,0.9-2.4,2.4-2.4H396.4z"/>
	<path class="st0" d="M416.4,332.4c1.6,0,2.4,0.8,2.4,2.4v37.6c0,1.5,0.9,2.4,2.4,2.4h17.9c1.6,0,2.4,0.8,2.4,2.4v9
		c0,1.6-0.8,2.4-2.4,2.4h-31.7c-1.5,0-2.4-0.9-2.4-2.4v-51.4c0-1.6,0.9-2.4,2.4-2.4H416.4z"/>
	<path class="st0" d="M458,332.4c1.6,0,2.4,0.8,2.4,2.4v37.6c0,1.5,0.9,2.4,2.4,2.4h17.9c1.6,0,2.4,0.8,2.4,2.4v9
		c0,1.6-0.8,2.4-2.4,2.4H449c-1.5,0-2.4-0.9-2.4-2.4v-51.4c0-1.6,0.9-2.4,2.4-2.4H458z"/>
	<path class="st0" d="M527.1,385.9c0,1.8-0.8,2.7-2.4,2.7h-9c-1.5,0-2.4-0.8-2.4-2.4v-7c0-1.6-0.8-2.4-2.4-2.4h-6.9
		c-1.5,0-2.4,0.8-2.4,2.4v7c0,1.6-0.8,2.4-2.4,2.4h-9c-1.5,0-2.4-1-2.4-2.7v-34.1c0-10.1,1.6-20.9,19.7-20.9s19.7,10.8,19.7,20.9
		V385.9z M513.3,351.8c0-3.9-0.6-5.8-5.9-5.8c-5.3,0-5.9,1.9-5.9,5.8v8.8c0,1.5,0.9,2.4,2.4,2.4h6.9c1.6-0.1,2.4-0.9,2.4-2.5V351.8z
		"/>
</g>
<path class="st0" d="M39.7,177.4c0,0,4.6-3.5,10.8-8.3c10.9-8.4,28-8.4,38.9,0c0.1,0.1,0.3,0.2,0.4,0.3c25.3,19.1,64.5,19,89.7-0.3
	c0,0,0,0,0.1-0.1c10.9-8.3,27.9-8.3,38.8,0c0,0,0,0,0.1,0.1c25.2,19.4,64.8,19.4,90,0c0,0,0,0,0.1-0.1c10.9-8.3,27.9-8.3,38.8,0
	c0,0,0,0,0.1,0.1c25.2,19.4,64.8,19.4,90,0c0,0,0,0,0.1-0.1c10.9-8.3,27.9-8.3,38.8,0c0,0,0,0,0.1,0.1c25.1,19.3,64.4,19.4,89.7,0.3
	c0.1-0.1,0.3-0.2,0.4-0.3c10.9-8.4,28-8.4,38.9,0c6.2,4.7,10.8,8.3,10.8,8.3c7.6,5.8,19.4,5.5,26.5-0.8c7.1-6.2,6.6-16-0.9-21.8
	c0,0-4.6-3.5-10.8-8.2c-7-5.3-15-9.2-23.6-11.6C603,66.5,534.2,11,448.3,11h-241C121.4,11,52.6,66.5,48.4,135
	c-8.5,2.4-16.6,6.3-23.6,11.6c-6.2,4.7-10.7,8.2-10.7,8.2c-7.6,5.8-8,15.5-0.9,21.8C20.2,182.9,32.1,183.2,39.7,177.4z M207.3,41.8
	h241c64.2,0,116.4,40.6,121.3,92c-10.3,2.1-20.1,6.3-28.4,12.6c-0.1,0.1-0.3,0.2-0.4,0.3c-10.9,8.3-27.9,8.4-38.8,0
	c0,0-0.1,0-0.1-0.1c-25.2-19.4-64.8-19.4-90,0c0,0-0.1,0-0.1,0.1c-10.9,8.3-27.9,8.3-38.8,0c0,0-0.1,0-0.1-0.1
	c-25.2-19.4-64.8-19.4-90,0c0,0-0.1,0-0.1,0.1c-10.9,8.3-27.9,8.3-38.8,0c0,0-0.1,0-0.1-0.1c-25.2-19.4-64.8-19.4-90,0
	c0,0-0.1,0-0.1,0.1c-10.9,8.3-28,8.3-38.8,0c-0.1-0.1-0.3-0.2-0.4-0.3c-8.3-6.3-18.1-10.4-28.4-12.6C91,82.5,143.2,41.8,207.3,41.8z
	"/>
</svg>
