<svg id="Layer_5" enable-background="new 0 0 64 64" height="512" viewBox="0 0 64 64" width="512" xmlns="http://www.w3.org/2000/svg"><g><path d="m30 23c-1.654 0-3 1.346-3 3s1.346 3 3 3 3-1.346 3-3-1.346-3-3-3zm0 4c-.552 0-1-.449-1-1s.448-1 1-1 1 .449 1 1-.448 1-1 1z"/><path d="m45 24c0-1.654-1.346-3-3-3s-3 1.346-3 3 1.346 3 3 3 3-1.346 3-3zm-4 0c0-.551.448-1 1-1s1 .449 1 1-.448 1-1 1-1-.449-1-1z"/><path d="m36 33c-1.654 0-3 1.346-3 3s1.346 3 3 3 3-1.346 3-3-1.346-3-3-3zm0 4c-.552 0-1-.448-1-1s.448-1 1-1 1 .448 1 1-.448 1-1 1z"/><path d="m52 17.188v-7.188c0-3.436-8.294-5-16-5-3.155 0-6.4.267-9.143.813-.267-.325-.527-.624-.787-.884-2.533-2.533-5.902-3.929-9.485-3.929h-1.102c-.93 0-1.805.362-2.463 1.02s-1.02 1.533-1.02 2.463v1.102c0 3.584 1.396 6.953 3.93 9.486 1.173 1.173 2.553 2.09 4.09 2.764.203 9.805 5.01 18.947 12.98 24.67v6.673c-4.115.503-8 2.127-8 4.823v4c0 3.248 5.667 5 11 5s11-1.752 11-5v-4c0-2.696-3.882-4.32-8-4.822v-6.674c8.146-5.85 13-15.267 13-25.317zm-2-3.188c0 .897-4.763 3-14 3s-14-2.103-14-3v-1.415c2.921 1.643 8.599 2.415 14 2.415s11.079-.772 14-2.415zm-14-7c9.237 0 14 2.103 14 3s-4.763 3-14 3-14-2.103-14-3 4.763-3 14-3zm-19.293-2.707-1.414 1.414 4.707 4.707v5.197c-.98-.524-1.873-1.172-2.656-1.954-2.156-2.156-3.344-5.023-3.344-8.073v-1.101c0-.39.158-.772.435-1.048.28-.281.652-.435 1.048-.435h1.102c3.049 0 5.915 1.188 8.071 3.344.001.001.002.002.003.003-1.735.511-3.114 1.171-3.906 1.992zm28.293 53.707c0 1.224-3.506 3-9 3s-9-1.776-9-3v-1.042c2.122 1.338 5.625 2.042 9 2.042s6.878-.704 9-2.042zm0-4c0 1.224-3.506 3-9 3s-9-1.776-9-3c0-.903 2.081-2.295 6-2.806v3.806h2v-12h2v12h2v-3.806c3.918.511 6 1.902 6 2.806zm-7.315-13h-3.369c-7.718-5.465-12.316-14.343-12.316-23.812v-.013-.59c2.921 1.643 8.599 2.415 14 2.415s11.079-.772 14-2.415v.603c0 9.469-4.598 18.347-12.315 23.812z"/></g></svg>